<svg aria-roledescription="er" role="graphics-document document" viewBox="0 0 380.495849609375 576" style="max-width: 380.496px; background-color: white;" xmlns:xlink="http://www.w3.org/1999/xlink" xmlns="http://www.w3.org/2000/svg" width="100%" id="my-svg"><style>#my-svg{font-family:"trebuchet ms",verdana,arial,sans-serif;font-size:16px;fill:#000000;}#my-svg .error-icon{fill:#552222;}#my-svg .error-text{fill:#552222;stroke:#552222;}#my-svg .edge-thickness-normal{stroke-width:1px;}#my-svg .edge-thickness-thick{stroke-width:3.5px;}#my-svg .edge-pattern-solid{stroke-dasharray:0;}#my-svg .edge-thickness-invisible{stroke-width:0;fill:none;}#my-svg .edge-pattern-dashed{stroke-dasharray:3;}#my-svg .edge-pattern-dotted{stroke-dasharray:2;}#my-svg .marker{fill:#000000;stroke:#000000;}#my-svg .marker.cross{stroke:#000000;}#my-svg svg{font-family:"trebuchet ms",verdana,arial,sans-serif;font-size:16px;}#my-svg p{margin:0;}#my-svg .entityBox{fill:#cde498;stroke:#13540c;}#my-svg .attributeBoxOdd{fill:#ffffff;stroke:#13540c;}#my-svg .attributeBoxEven{fill:#f2f2f2;stroke:#13540c;}#my-svg .relationshipLabelBox{fill:hsl(78.1578947368, 58.4615384615%, 84.5098039216%);opacity:0.7;background-color:hsl(78.1578947368, 58.4615384615%, 84.5098039216%);}#my-svg .relationshipLabelBox rect{opacity:0.5;}#my-svg .relationshipLine{stroke:#000000;}#my-svg .entityTitleText{text-anchor:middle;font-size:18px;fill:#000000;}#my-svg #MD_PARENT_START{fill:#f5f5f5!important;stroke:#000000!important;stroke-width:1;}#my-svg #MD_PARENT_END{fill:#f5f5f5!important;stroke:#000000!important;stroke-width:1;}#my-svg :root{--mermaid-font-family:"trebuchet ms",verdana,arial,sans-serif;}</style><g/><defs><marker orient="auto" markerHeight="240" markerWidth="190" refY="7" refX="0" id="MD_PARENT_START"><path d="M 18,7 L9,13 L1,7 L9,1 Z"/></marker></defs><defs><marker orient="auto" markerHeight="28" markerWidth="20" refY="7" refX="19" id="MD_PARENT_END"><path d="M 18,7 L9,13 L1,7 L9,1 Z"/></marker></defs><defs><marker orient="auto" markerHeight="18" markerWidth="18" refY="9" refX="0" id="ONLY_ONE_START"><path d="M9,0 L9,18 M15,0 L15,18" fill="none" stroke="gray"/></marker></defs><defs><marker orient="auto" markerHeight="18" markerWidth="18" refY="9" refX="18" id="ONLY_ONE_END"><path d="M3,0 L3,18 M9,0 L9,18" fill="none" stroke="gray"/></marker></defs><defs><marker orient="auto" markerHeight="18" markerWidth="30" refY="9" refX="0" id="ZERO_OR_ONE_START"><circle r="6" cy="9" cx="21" fill="white" stroke="gray"/><path d="M9,0 L9,18" fill="none" stroke="gray"/></marker></defs><defs><marker orient="auto" markerHeight="18" markerWidth="30" refY="9" refX="30" id="ZERO_OR_ONE_END"><circle r="6" cy="9" cx="9" fill="white" stroke="gray"/><path d="M21,0 L21,18" fill="none" stroke="gray"/></marker></defs><defs><marker orient="auto" markerHeight="36" markerWidth="45" refY="18" refX="18" id="ONE_OR_MORE_START"><path d="M0,18 Q 18,0 36,18 Q 18,36 0,18 M42,9 L42,27" fill="none" stroke="gray"/></marker></defs><defs><marker orient="auto" markerHeight="36" markerWidth="45" refY="18" refX="27" id="ONE_OR_MORE_END"><path d="M3,9 L3,27 M9,18 Q27,0 45,18 Q27,36 9,18" fill="none" stroke="gray"/></marker></defs><defs><marker orient="auto" markerHeight="36" markerWidth="57" refY="18" refX="18" id="ZERO_OR_MORE_START"><circle r="6" cy="18" cx="48" fill="white" stroke="gray"/><path d="M0,18 Q18,0 36,18 Q18,36 0,18" fill="none" stroke="gray"/></marker></defs><defs><marker orient="auto" markerHeight="36" markerWidth="57" refY="18" refX="39" id="ZERO_OR_MORE_END"><circle r="6" cy="18" cx="9" fill="white" stroke="gray"/><path d="M21,18 Q39,0 57,18 Q39,36 21,18" fill="none" stroke="gray"/></marker></defs><path style="stroke: gray; fill: none;" marker-start="url(#ZERO_OR_MORE_START)" marker-end="url(#ZERO_OR_MORE_END)" d="M50.618,242L48.03,250.333C45.442,258.667,40.266,275.333,43.386,292C46.505,308.667,57.921,325.333,63.629,333.667L69.336,342" class="er relationshipLine"/><path style="stroke: gray; fill: none;" marker-start="url(#ZERO_OR_MORE_START)" marker-end="url(#ZERO_OR_MORE_END)" d="M105.328,488L110.288,479.667C115.249,471.333,125.169,454.667,124.422,438C123.674,421.333,112.259,404.667,106.551,396.333L100.843,388" class="er relationshipLine"/><path style="stroke: gray; fill: none;" marker-start="url(#ZERO_OR_ONE_START)" marker-end="url(#ONLY_ONE_END)" d="M100.843,342L106.551,333.667C112.259,325.333,123.674,308.667,126.794,292C129.914,275.333,124.738,258.667,122.15,250.333L119.562,242" class="er relationshipLine"/><path style="stroke: gray; fill: none;" marker-start="url(#ZERO_OR_ONE_START)" marker-end="url(#ONLY_ONE_END)" d="M69.336,388L63.629,396.333C57.921,404.667,46.505,421.333,45.758,438C45.01,454.667,54.931,471.333,59.891,479.667L64.852,488" class="er relationshipLine"/><g transform="translate(27.06976318359375,20 )" id="entity-Player-8a4d8822-5447-5bf3-9bb1-c82c7616821b"><rect height="222" width="116.04014587402344" y="0" x="0" class="er entityBox"/><text style="dominant-baseline: middle; text-anchor: middle; font-size: 12px;" transform="translate(58.02007293701172,12)" y="0" x="0" id="text-entity-Player-8a4d8822-5447-5bf3-9bb1-c82c7616821b" class="er entityLabel">Player</text><rect height="22" width="37.39605712890625" y="24" x="0" class="er attributeBoxOdd"/><text style="dominant-baseline: middle; font-size: 10.2px;" transform="translate(5,35)" y="0" x="0" id="text-entity-Player-8a4d8822-5447-5bf3-9bb1-c82c7616821b-attr-1-type" class="er entityLabel">String</text><rect height="22" width="54.62846374511719" y="24" x="37.39605712890625" class="er attributeBoxOdd"/><text style="dominant-baseline: middle; font-size: 10.2px;" transform="translate(42.39605712890625,35)" y="0" x="0" id="text-entity-Player-8a4d8822-5447-5bf3-9bb1-c82c7616821b-attr-1-name" class="er entityLabel">user_id</text><rect height="22" width="24.015625" y="24" x="92.02452087402344" class="er attributeBoxOdd"/><text style="dominant-baseline: middle; font-size: 10.2px;" transform="translate(97.02452087402344,35)" y="0" x="0" id="text-entity-Player-8a4d8822-5447-5bf3-9bb1-c82c7616821b-attr-1-comment" class="er entityLabel">🗝️</text><rect height="22" width="37.39605712890625" y="46" x="0" class="er attributeBoxEven"/><text style="dominant-baseline: middle; font-size: 10.2px;" transform="translate(5,57)" y="0" x="0" id="text-entity-Player-8a4d8822-5447-5bf3-9bb1-c82c7616821b-attr-2-type" class="er entityLabel">String</text><rect height="22" width="54.62846374511719" y="46" x="37.39605712890625" class="er attributeBoxEven"/><text style="dominant-baseline: middle; font-size: 10.2px;" transform="translate(42.39605712890625,57)" y="0" x="0" id="text-entity-Player-8a4d8822-5447-5bf3-9bb1-c82c7616821b-attr-2-name" class="er entityLabel">username</text><rect height="22" width="24.015625" y="46" x="92.02452087402344" class="er attributeBoxEven"/><text style="dominant-baseline: middle; font-size: 10.2px;" transform="translate(97.02452087402344,57)" y="0" x="0" id="text-entity-Player-8a4d8822-5447-5bf3-9bb1-c82c7616821b-attr-2-comment" class="er entityLabel"/><rect height="22" width="37.39605712890625" y="68" x="0" class="er attributeBoxOdd"/><text style="dominant-baseline: middle; font-size: 10.2px;" transform="translate(5,79)" y="0" x="0" id="text-entity-Player-8a4d8822-5447-5bf3-9bb1-c82c7616821b-attr-3-type" class="er entityLabel">String</text><rect height="22" width="54.62846374511719" y="68" x="37.39605712890625" class="er attributeBoxOdd"/><text style="dominant-baseline: middle; font-size: 10.2px;" transform="translate(42.39605712890625,79)" y="0" x="0" id="text-entity-Player-8a4d8822-5447-5bf3-9bb1-c82c7616821b-attr-3-name" class="er entityLabel">email</text><rect height="22" width="24.015625" y="68" x="92.02452087402344" class="er attributeBoxOdd"/><text style="dominant-baseline: middle; font-size: 10.2px;" transform="translate(97.02452087402344,79)" y="0" x="0" id="text-entity-Player-8a4d8822-5447-5bf3-9bb1-c82c7616821b-attr-3-comment" class="er entityLabel"/><rect height="22" width="37.39605712890625" y="90" x="0" class="er attributeBoxEven"/><text style="dominant-baseline: middle; font-size: 10.2px;" transform="translate(5,101)" y="0" x="0" id="text-entity-Player-8a4d8822-5447-5bf3-9bb1-c82c7616821b-attr-4-type" class="er entityLabel">Int</text><rect height="22" width="54.62846374511719" y="90" x="37.39605712890625" class="er attributeBoxEven"/><text style="dominant-baseline: middle; font-size: 10.2px;" transform="translate(42.39605712890625,101)" y="0" x="0" id="text-entity-Player-8a4d8822-5447-5bf3-9bb1-c82c7616821b-attr-4-name" class="er entityLabel">wins</text><rect height="22" width="24.015625" y="90" x="92.02452087402344" class="er attributeBoxEven"/><text style="dominant-baseline: middle; font-size: 10.2px;" transform="translate(97.02452087402344,101)" y="0" x="0" id="text-entity-Player-8a4d8822-5447-5bf3-9bb1-c82c7616821b-attr-4-comment" class="er entityLabel"/><rect height="22" width="37.39605712890625" y="112" x="0" class="er attributeBoxOdd"/><text style="dominant-baseline: middle; font-size: 10.2px;" transform="translate(5,123)" y="0" x="0" id="text-entity-Player-8a4d8822-5447-5bf3-9bb1-c82c7616821b-attr-5-type" class="er entityLabel">Int</text><rect height="22" width="54.62846374511719" y="112" x="37.39605712890625" class="er attributeBoxOdd"/><text style="dominant-baseline: middle; font-size: 10.2px;" transform="translate(42.39605712890625,123)" y="0" x="0" id="text-entity-Player-8a4d8822-5447-5bf3-9bb1-c82c7616821b-attr-5-name" class="er entityLabel">goals</text><rect height="22" width="24.015625" y="112" x="92.02452087402344" class="er attributeBoxOdd"/><text style="dominant-baseline: middle; font-size: 10.2px;" transform="translate(97.02452087402344,123)" y="0" x="0" id="text-entity-Player-8a4d8822-5447-5bf3-9bb1-c82c7616821b-attr-5-comment" class="er entityLabel"/><rect height="22" width="37.39605712890625" y="134" x="0" class="er attributeBoxEven"/><text style="dominant-baseline: middle; font-size: 10.2px;" transform="translate(5,145)" y="0" x="0" id="text-entity-Player-8a4d8822-5447-5bf3-9bb1-c82c7616821b-attr-6-type" class="er entityLabel">Int</text><rect height="22" width="54.62846374511719" y="134" x="37.39605712890625" class="er attributeBoxEven"/><text style="dominant-baseline: middle; font-size: 10.2px;" transform="translate(42.39605712890625,145)" y="0" x="0" id="text-entity-Player-8a4d8822-5447-5bf3-9bb1-c82c7616821b-attr-6-name" class="er entityLabel">games</text><rect height="22" width="24.015625" y="134" x="92.02452087402344" class="er attributeBoxEven"/><text style="dominant-baseline: middle; font-size: 10.2px;" transform="translate(97.02452087402344,145)" y="0" x="0" id="text-entity-Player-8a4d8822-5447-5bf3-9bb1-c82c7616821b-attr-6-comment" class="er entityLabel"/><rect height="22" width="37.39605712890625" y="156" x="0" class="er attributeBoxOdd"/><text style="dominant-baseline: middle; font-size: 10.2px;" transform="translate(5,167)" y="0" x="0" id="text-entity-Player-8a4d8822-5447-5bf3-9bb1-c82c7616821b-attr-7-type" class="er entityLabel">Int</text><rect height="22" width="54.62846374511719" y="156" x="37.39605712890625" class="er attributeBoxOdd"/><text style="dominant-baseline: middle; font-size: 10.2px;" transform="translate(42.39605712890625,167)" y="0" x="0" id="text-entity-Player-8a4d8822-5447-5bf3-9bb1-c82c7616821b-attr-7-name" class="er entityLabel">losses</text><rect height="22" width="24.015625" y="156" x="92.02452087402344" class="er attributeBoxOdd"/><text style="dominant-baseline: middle; font-size: 10.2px;" transform="translate(97.02452087402344,167)" y="0" x="0" id="text-entity-Player-8a4d8822-5447-5bf3-9bb1-c82c7616821b-attr-7-comment" class="er entityLabel"/><rect height="22" width="37.39605712890625" y="178" x="0" class="er attributeBoxEven"/><text style="dominant-baseline: middle; font-size: 10.2px;" transform="translate(5,189)" y="0" x="0" id="text-entity-Player-8a4d8822-5447-5bf3-9bb1-c82c7616821b-attr-8-type" class="er entityLabel">Float</text><rect height="22" width="54.62846374511719" y="178" x="37.39605712890625" class="er attributeBoxEven"/><text style="dominant-baseline: middle; font-size: 10.2px;" transform="translate(42.39605712890625,189)" y="0" x="0" id="text-entity-Player-8a4d8822-5447-5bf3-9bb1-c82c7616821b-attr-8-name" class="er entityLabel">ratio</text><rect height="22" width="24.015625" y="178" x="92.02452087402344" class="er attributeBoxEven"/><text style="dominant-baseline: middle; font-size: 10.2px;" transform="translate(97.02452087402344,189)" y="0" x="0" id="text-entity-Player-8a4d8822-5447-5bf3-9bb1-c82c7616821b-attr-8-comment" class="er entityLabel">❓</text><rect height="22" width="37.39605712890625" y="200" x="0" class="er attributeBoxOdd"/><text style="dominant-baseline: middle; font-size: 10.2px;" transform="translate(5,211)" y="0" x="0" id="text-entity-Player-8a4d8822-5447-5bf3-9bb1-c82c7616821b-attr-9-type" class="er entityLabel">String</text><rect height="22" width="54.62846374511719" y="200" x="37.39605712890625" class="er attributeBoxOdd"/><text style="dominant-baseline: middle; font-size: 10.2px;" transform="translate(42.39605712890625,211)" y="0" x="0" id="text-entity-Player-8a4d8822-5447-5bf3-9bb1-c82c7616821b-attr-9-name" class="er entityLabel">role</text><rect height="22" width="24.015625" y="200" x="92.02452087402344" class="er attributeBoxOdd"/><text style="dominant-baseline: middle; font-size: 10.2px;" transform="translate(97.02452087402344,211)" y="0" x="0" id="text-entity-Player-8a4d8822-5447-5bf3-9bb1-c82c7616821b-attr-9-comment" class="er entityLabel"/></g><g transform="translate(20,488 )" id="entity-Match-bb868d25-f1db-5893-b0b3-486d1ccf5a14"><rect height="68" width="130.17967224121094" y="0" x="0" class="er entityBox"/><text style="dominant-baseline: middle; text-anchor: middle; font-size: 12px;" transform="translate(65.08983612060547,12)" y="0" x="0" id="text-entity-Match-bb868d25-f1db-5893-b0b3-486d1ccf5a14" class="er entityLabel">Match</text><rect height="22" width="54.095550537109375" y="24" x="0" class="er attributeBoxOdd"/><text style="dominant-baseline: middle; font-size: 10.2px;" transform="translate(5,35)" y="0" x="0" id="text-entity-Match-bb868d25-f1db-5893-b0b3-486d1ccf5a14-attr-1-type" class="er entityLabel">Int</text><rect height="22" width="52.06849670410156" y="24" x="54.095550537109375" class="er attributeBoxOdd"/><text style="dominant-baseline: middle; font-size: 10.2px;" transform="translate(59.095550537109375,35)" y="0" x="0" id="text-entity-Match-bb868d25-f1db-5893-b0b3-486d1ccf5a14-attr-1-name" class="er entityLabel">id</text><rect height="22" width="24.015625" y="24" x="106.16404724121094" class="er attributeBoxOdd"/><text style="dominant-baseline: middle; font-size: 10.2px;" transform="translate(111.16404724121094,35)" y="0" x="0" id="text-entity-Match-bb868d25-f1db-5893-b0b3-486d1ccf5a14-attr-1-comment" class="er entityLabel">🗝️</text><rect height="22" width="54.095550537109375" y="46" x="0" class="er attributeBoxEven"/><text style="dominant-baseline: middle; font-size: 10.2px;" transform="translate(5,57)" y="0" x="0" id="text-entity-Match-bb868d25-f1db-5893-b0b3-486d1ccf5a14-attr-2-type" class="er entityLabel">DateTime</text><rect height="22" width="52.06849670410156" y="46" x="54.095550537109375" class="er attributeBoxEven"/><text style="dominant-baseline: middle; font-size: 10.2px;" transform="translate(59.095550537109375,57)" y="0" x="0" id="text-entity-Match-bb868d25-f1db-5893-b0b3-486d1ccf5a14-attr-2-name" class="er entityLabel">datetime</text><rect height="22" width="24.015625" y="46" x="106.16404724121094" class="er attributeBoxEven"/><text style="dominant-baseline: middle; font-size: 10.2px;" transform="translate(111.16404724121094,57)" y="0" x="0" id="text-entity-Match-bb868d25-f1db-5893-b0b3-486d1ccf5a14-attr-2-comment" class="er entityLabel"/></g><g transform="translate(24.07225799560547,342 )" id="entity-PlayersInMatches-16e5a338-cf92-5dab-81b4-a27ce09aad4e"><rect height="46" width="122.03515625" y="0" x="0" class="er entityBox"/><text style="dominant-baseline: middle; text-anchor: middle; font-size: 12px;" transform="translate(61.017578125,12)" y="0" x="0" id="text-entity-PlayersInMatches-16e5a338-cf92-5dab-81b4-a27ce09aad4e" class="er entityLabel">PlayersInMatches</text><rect height="22" width="40.72273254394531" y="24" x="0" class="er attributeBoxOdd"/><text style="dominant-baseline: middle; font-size: 10.2px;" transform="translate(5,35)" y="0" x="0" id="text-entity-PlayersInMatches-16e5a338-cf92-5dab-81b4-a27ce09aad4e-attr-1-type" class="er entityLabel">Int</text><rect height="22" width="81.31242370605469" y="24" x="40.72273254394531" class="er attributeBoxOdd"/><text style="dominant-baseline: middle; font-size: 10.2px;" transform="translate(45.72273254394531,35)" y="0" x="0" id="text-entity-PlayersInMatches-16e5a338-cf92-5dab-81b4-a27ce09aad4e-attr-1-name" class="er entityLabel">playerScore</text></g><g transform="translate(243.1099090576172,86 )" id="entity-MatchSettings-a0d3a564-6242-52be-9344-246fa734b625"><rect height="90" width="117.38594055175781" y="0" x="0" class="er entityBox"/><text style="dominant-baseline: middle; text-anchor: middle; font-size: 12px;" transform="translate(58.692970275878906,12)" y="0" x="0" id="text-entity-MatchSettings-a0d3a564-6242-52be-9344-246fa734b625" class="er entityLabel">MatchSettings</text><rect height="22" width="23.412002563476562" y="24" x="0" class="er attributeBoxOdd"/><text style="dominant-baseline: middle; font-size: 10.2px;" transform="translate(5,35)" y="0" x="0" id="text-entity-MatchSettings-a0d3a564-6242-52be-9344-246fa734b625-attr-1-type" class="er entityLabel">Int</text><rect height="22" width="69.95831298828125" y="24" x="23.412002563476562" class="er attributeBoxOdd"/><text style="dominant-baseline: middle; font-size: 10.2px;" transform="translate(28.412002563476562,35)" y="0" x="0" id="text-entity-MatchSettings-a0d3a564-6242-52be-9344-246fa734b625-attr-1-name" class="er entityLabel">id</text><rect height="22" width="24.015625" y="24" x="93.37031555175781" class="er attributeBoxOdd"/><text style="dominant-baseline: middle; font-size: 10.2px;" transform="translate(98.37031555175781,35)" y="0" x="0" id="text-entity-MatchSettings-a0d3a564-6242-52be-9344-246fa734b625-attr-1-comment" class="er entityLabel">🗝️</text><rect height="22" width="23.412002563476562" y="46" x="0" class="er attributeBoxEven"/><text style="dominant-baseline: middle; font-size: 10.2px;" transform="translate(5,57)" y="0" x="0" id="text-entity-MatchSettings-a0d3a564-6242-52be-9344-246fa734b625-attr-2-type" class="er entityLabel">Int</text><rect height="22" width="69.95831298828125" y="46" x="23.412002563476562" class="er attributeBoxEven"/><text style="dominant-baseline: middle; font-size: 10.2px;" transform="translate(28.412002563476562,57)" y="0" x="0" id="text-entity-MatchSettings-a0d3a564-6242-52be-9344-246fa734b625-attr-2-name" class="er entityLabel">numPlayers</text><rect height="22" width="24.015625" y="46" x="93.37031555175781" class="er attributeBoxEven"/><text style="dominant-baseline: middle; font-size: 10.2px;" transform="translate(98.37031555175781,57)" y="0" x="0" id="text-entity-MatchSettings-a0d3a564-6242-52be-9344-246fa734b625-attr-2-comment" class="er entityLabel"/><rect height="22" width="23.412002563476562" y="68" x="0" class="er attributeBoxOdd"/><text style="dominant-baseline: middle; font-size: 10.2px;" transform="translate(5,79)" y="0" x="0" id="text-entity-MatchSettings-a0d3a564-6242-52be-9344-246fa734b625-attr-3-type" class="er entityLabel">Int</text><rect height="22" width="69.95831298828125" y="68" x="23.412002563476562" class="er attributeBoxOdd"/><text style="dominant-baseline: middle; font-size: 10.2px;" transform="translate(28.412002563476562,79)" y="0" x="0" id="text-entity-MatchSettings-a0d3a564-6242-52be-9344-246fa734b625-attr-3-name" class="er entityLabel">matchLength</text><rect height="22" width="24.015625" y="68" x="93.37031555175781" class="er attributeBoxOdd"/><text style="dominant-baseline: middle; font-size: 10.2px;" transform="translate(98.37031555175781,79)" y="0" x="0" id="text-entity-MatchSettings-a0d3a564-6242-52be-9344-246fa734b625-attr-3-comment" class="er entityLabel"/></g><rect height="14" width="45.06640625" y="287.7711181640625" x="21.445907592773438" class="er relationshipLabelBox"/><text style="text-anchor: middle; dominant-baseline: middle; font-size: 12px;" y="294.7711181640625" x="43.97911071777344" id="rel1" class="er relationshipLabel">matches</text><rect height="14" width="38.65625" y="430.1553649902344" x="105.04680633544922" class="er relationshipLabelBox"/><text style="text-anchor: middle; dominant-baseline: middle; font-size: 12px;" y="437.1553649902344" x="124.37493133544922" id="rel2" class="er relationshipLabel">players</text><rect height="14" width="34.9921875" y="287.77130126953125" x="108.70460510253906" class="er relationshipLabelBox"/><text style="text-anchor: middle; dominant-baseline: middle; font-size: 12px;" y="294.77130126953125" x="126.20069885253906" id="rel3" class="er relationshipLabel">player</text><rect height="14" width="33.96484375" y="430.15570068359375" x="28.82257080078125" class="er relationshipLabelBox"/><text style="text-anchor: middle; dominant-baseline: middle; font-size: 12px;" y="437.15570068359375" x="45.80499267578125" id="rel4" class="er relationshipLabel">match</text></svg>
