<svg aria-roledescription="er" role="graphics-document document" viewBox="0 0 380.0390625 588.55078125" style="max-width: 380.039px; background-color: white;" xmlns:xlink="http://www.w3.org/1999/xlink" xmlns="http://www.w3.org/2000/svg" width="100%" id="my-svg"><style>#my-svg{font-family:"trebuchet ms",verdana,arial,sans-serif;font-size:16px;fill:#000000;}#my-svg .error-icon{fill:#552222;}#my-svg .error-text{fill:#552222;stroke:#552222;}#my-svg .edge-thickness-normal{stroke-width:1px;}#my-svg .edge-thickness-thick{stroke-width:3.5px;}#my-svg .edge-pattern-solid{stroke-dasharray:0;}#my-svg .edge-thickness-invisible{stroke-width:0;fill:none;}#my-svg .edge-pattern-dashed{stroke-dasharray:3;}#my-svg .edge-pattern-dotted{stroke-dasharray:2;}#my-svg .marker{fill:#000000;stroke:#000000;}#my-svg .marker.cross{stroke:#000000;}#my-svg svg{font-family:"trebuchet ms",verdana,arial,sans-serif;font-size:16px;}#my-svg p{margin:0;}#my-svg .entityBox{fill:#cde498;stroke:#13540c;}#my-svg .attributeBoxOdd{fill:#ffffff;stroke:#13540c;}#my-svg .attributeBoxEven{fill:#f2f2f2;stroke:#13540c;}#my-svg .relationshipLabelBox{fill:hsl(78.1578947368, 58.4615384615%, 84.5098039216%);opacity:0.7;background-color:hsl(78.1578947368, 58.4615384615%, 84.5098039216%);}#my-svg .relationshipLabelBox rect{opacity:0.5;}#my-svg .relationshipLine{stroke:#000000;}#my-svg .entityTitleText{text-anchor:middle;font-size:18px;fill:#000000;}#my-svg #MD_PARENT_START{fill:#f5f5f5!important;stroke:#000000!important;stroke-width:1;}#my-svg #MD_PARENT_END{fill:#f5f5f5!important;stroke:#000000!important;stroke-width:1;}#my-svg :root{--mermaid-font-family:"trebuchet ms",verdana,arial,sans-serif;}</style><g/><defs><marker orient="auto" markerHeight="240" markerWidth="190" refY="7" refX="0" id="MD_PARENT_START"><path d="M 18,7 L9,13 L1,7 L9,1 Z"/></marker></defs><defs><marker orient="auto" markerHeight="28" markerWidth="20" refY="7" refX="19" id="MD_PARENT_END"><path d="M 18,7 L9,13 L1,7 L9,1 Z"/></marker></defs><defs><marker orient="auto" markerHeight="18" markerWidth="18" refY="9" refX="0" id="ONLY_ONE_START"><path d="M9,0 L9,18 M15,0 L15,18" fill="none" stroke="gray"/></marker></defs><defs><marker orient="auto" markerHeight="18" markerWidth="18" refY="9" refX="18" id="ONLY_ONE_END"><path d="M3,0 L3,18 M9,0 L9,18" fill="none" stroke="gray"/></marker></defs><defs><marker orient="auto" markerHeight="18" markerWidth="30" refY="9" refX="0" id="ZERO_OR_ONE_START"><circle r="6" cy="9" cx="21" fill="white" stroke="gray"/><path d="M9,0 L9,18" fill="none" stroke="gray"/></marker></defs><defs><marker orient="auto" markerHeight="18" markerWidth="30" refY="9" refX="30" id="ZERO_OR_ONE_END"><circle r="6" cy="9" cx="9" fill="white" stroke="gray"/><path d="M21,0 L21,18" fill="none" stroke="gray"/></marker></defs><defs><marker orient="auto" markerHeight="36" markerWidth="45" refY="18" refX="18" id="ONE_OR_MORE_START"><path d="M0,18 Q 18,0 36,18 Q 18,36 0,18 M42,9 L42,27" fill="none" stroke="gray"/></marker></defs><defs><marker orient="auto" markerHeight="36" markerWidth="45" refY="18" refX="27" id="ONE_OR_MORE_END"><path d="M3,9 L3,27 M9,18 Q27,0 45,18 Q27,36 9,18" fill="none" stroke="gray"/></marker></defs><defs><marker orient="auto" markerHeight="36" markerWidth="57" refY="18" refX="18" id="ZERO_OR_MORE_START"><circle r="6" cy="18" cx="48" fill="white" stroke="gray"/><path d="M0,18 Q18,0 36,18 Q18,36 0,18" fill="none" stroke="gray"/></marker></defs><defs><marker orient="auto" markerHeight="36" markerWidth="57" refY="18" refX="39" id="ZERO_OR_MORE_END"><circle r="6" cy="18" cx="9" fill="white" stroke="gray"/><path d="M21,18 Q39,0 57,18 Q39,36 21,18" fill="none" stroke="gray"/></marker></defs><path style="stroke: gray; fill: none;" marker-start="url(#ZERO_OR_MORE_START)" marker-end="url(#ZERO_OR_MORE_END)" d="M50.287,250.459L47.765,258.792C45.243,267.126,40.2,283.792,43.382,300.459C46.565,317.126,57.973,333.792,63.677,342.126L69.381,350.459" class="er relationshipLine"/><path style="stroke: gray; fill: none;" marker-start="url(#ZERO_OR_MORE_START)" marker-end="url(#ZERO_OR_MORE_END)" d="M106.086,496.551L110.931,488.217C115.776,479.884,125.466,463.217,124.607,446.551C123.748,429.884,112.34,413.217,106.635,404.884L100.931,396.551" class="er relationshipLine"/><path style="stroke: gray; fill: none;" marker-start="url(#ZERO_OR_ONE_START)" marker-end="url(#ONLY_ONE_END)" d="M100.931,350.459L106.635,342.126C112.34,333.792,123.748,317.126,126.93,300.459C130.113,283.792,125.069,267.126,122.548,258.792L120.026,250.459" class="er relationshipLine"/><path style="stroke: gray; fill: none;" marker-start="url(#ZERO_OR_ONE_START)" marker-end="url(#ONLY_ONE_END)" d="M69.381,396.551L63.677,404.884C57.973,413.217,46.565,429.884,45.705,446.551C44.846,463.217,54.536,479.884,59.381,488.217L64.226,496.551" class="er relationshipLine"/><g transform="translate(27.2890625,20 )" id="entity-Player-8a4d8822-5447-5bf3-9bb1-c82c7616821b"><rect height="230.458984375" width="115.734375" y="0" x="0" class="er entityBox"/><text style="dominant-baseline: middle; text-anchor: middle; font-size: 12px;" transform="translate(57.8671875,12)" y="0" x="0" id="text-entity-Player-8a4d8822-5447-5bf3-9bb1-c82c7616821b" class="er entityLabel">Player</text><rect height="26" width="36.53125" y="24" x="0" class="er attributeBoxOdd"/><text style="dominant-baseline: middle; font-size: 10.2px;" transform="translate(5,37)" y="0" x="0" id="text-entity-Player-8a4d8822-5447-5bf3-9bb1-c82c7616821b-attr-1-type" class="er entityLabel">String</text><rect height="26" width="54.203125" y="24" x="36.53125" class="er attributeBoxOdd"/><text style="dominant-baseline: middle; font-size: 10.2px;" transform="translate(41.53125,37)" y="0" x="0" id="text-entity-Player-8a4d8822-5447-5bf3-9bb1-c82c7616821b-attr-1-name" class="er entityLabel">user_id</text><rect height="26" width="25" y="24" x="90.734375" class="er attributeBoxOdd"/><text style="dominant-baseline: middle; font-size: 10.2px;" transform="translate(95.734375,37)" y="0" x="0" id="text-entity-Player-8a4d8822-5447-5bf3-9bb1-c82c7616821b-attr-1-comment" class="er entityLabel">🗝️</text><rect height="22.091796875" width="36.53125" y="50" x="0" class="er attributeBoxEven"/><text style="dominant-baseline: middle; font-size: 10.2px;" transform="translate(5,61.0458984375)" y="0" x="0" id="text-entity-Player-8a4d8822-5447-5bf3-9bb1-c82c7616821b-attr-2-type" class="er entityLabel">String</text><rect height="22.091796875" width="54.203125" y="50" x="36.53125" class="er attributeBoxEven"/><text style="dominant-baseline: middle; font-size: 10.2px;" transform="translate(41.53125,61.0458984375)" y="0" x="0" id="text-entity-Player-8a4d8822-5447-5bf3-9bb1-c82c7616821b-attr-2-name" class="er entityLabel">username</text><rect height="22.091796875" width="25" y="50" x="90.734375" class="er attributeBoxEven"/><text style="dominant-baseline: middle; font-size: 10.2px;" transform="translate(95.734375,61.0458984375)" y="0" x="0" id="text-entity-Player-8a4d8822-5447-5bf3-9bb1-c82c7616821b-attr-2-comment" class="er entityLabel"/><rect height="22.091796875" width="36.53125" y="72.091796875" x="0" class="er attributeBoxOdd"/><text style="dominant-baseline: middle; font-size: 10.2px;" transform="translate(5,83.1376953125)" y="0" x="0" id="text-entity-Player-8a4d8822-5447-5bf3-9bb1-c82c7616821b-attr-3-type" class="er entityLabel">String</text><rect height="22.091796875" width="54.203125" y="72.091796875" x="36.53125" class="er attributeBoxOdd"/><text style="dominant-baseline: middle; font-size: 10.2px;" transform="translate(41.53125,83.1376953125)" y="0" x="0" id="text-entity-Player-8a4d8822-5447-5bf3-9bb1-c82c7616821b-attr-3-name" class="er entityLabel">email</text><rect height="22.091796875" width="25" y="72.091796875" x="90.734375" class="er attributeBoxOdd"/><text style="dominant-baseline: middle; font-size: 10.2px;" transform="translate(95.734375,83.1376953125)" y="0" x="0" id="text-entity-Player-8a4d8822-5447-5bf3-9bb1-c82c7616821b-attr-3-comment" class="er entityLabel"/><rect height="22" width="36.53125" y="94.18359375" x="0" class="er attributeBoxEven"/><text style="dominant-baseline: middle; font-size: 10.2px;" transform="translate(5,105.18359375)" y="0" x="0" id="text-entity-Player-8a4d8822-5447-5bf3-9bb1-c82c7616821b-attr-4-type" class="er entityLabel">Int</text><rect height="22" width="54.203125" y="94.18359375" x="36.53125" class="er attributeBoxEven"/><text style="dominant-baseline: middle; font-size: 10.2px;" transform="translate(41.53125,105.18359375)" y="0" x="0" id="text-entity-Player-8a4d8822-5447-5bf3-9bb1-c82c7616821b-attr-4-name" class="er entityLabel">wins</text><rect height="22" width="25" y="94.18359375" x="90.734375" class="er attributeBoxEven"/><text style="dominant-baseline: middle; font-size: 10.2px;" transform="translate(95.734375,105.18359375)" y="0" x="0" id="text-entity-Player-8a4d8822-5447-5bf3-9bb1-c82c7616821b-attr-4-comment" class="er entityLabel"/><rect height="22.091796875" width="36.53125" y="116.18359375" x="0" class="er attributeBoxOdd"/><text style="dominant-baseline: middle; font-size: 10.2px;" transform="translate(5,127.2294921875)" y="0" x="0" id="text-entity-Player-8a4d8822-5447-5bf3-9bb1-c82c7616821b-attr-5-type" class="er entityLabel">Int</text><rect height="22.091796875" width="54.203125" y="116.18359375" x="36.53125" class="er attributeBoxOdd"/><text style="dominant-baseline: middle; font-size: 10.2px;" transform="translate(41.53125,127.2294921875)" y="0" x="0" id="text-entity-Player-8a4d8822-5447-5bf3-9bb1-c82c7616821b-attr-5-name" class="er entityLabel">goals</text><rect height="22.091796875" width="25" y="116.18359375" x="90.734375" class="er attributeBoxOdd"/><text style="dominant-baseline: middle; font-size: 10.2px;" transform="translate(95.734375,127.2294921875)" y="0" x="0" id="text-entity-Player-8a4d8822-5447-5bf3-9bb1-c82c7616821b-attr-5-comment" class="er entityLabel"/><rect height="22.091796875" width="36.53125" y="138.275390625" x="0" class="er attributeBoxEven"/><text style="dominant-baseline: middle; font-size: 10.2px;" transform="translate(5,149.3212890625)" y="0" x="0" id="text-entity-Player-8a4d8822-5447-5bf3-9bb1-c82c7616821b-attr-6-type" class="er entityLabel">Int</text><rect height="22.091796875" width="54.203125" y="138.275390625" x="36.53125" class="er attributeBoxEven"/><text style="dominant-baseline: middle; font-size: 10.2px;" transform="translate(41.53125,149.3212890625)" y="0" x="0" id="text-entity-Player-8a4d8822-5447-5bf3-9bb1-c82c7616821b-attr-6-name" class="er entityLabel">games</text><rect height="22.091796875" width="25" y="138.275390625" x="90.734375" class="er attributeBoxEven"/><text style="dominant-baseline: middle; font-size: 10.2px;" transform="translate(95.734375,149.3212890625)" y="0" x="0" id="text-entity-Player-8a4d8822-5447-5bf3-9bb1-c82c7616821b-attr-6-comment" class="er entityLabel"/><rect height="22" width="36.53125" y="160.3671875" x="0" class="er attributeBoxOdd"/><text style="dominant-baseline: middle; font-size: 10.2px;" transform="translate(5,171.3671875)" y="0" x="0" id="text-entity-Player-8a4d8822-5447-5bf3-9bb1-c82c7616821b-attr-7-type" class="er entityLabel">Int</text><rect height="22" width="54.203125" y="160.3671875" x="36.53125" class="er attributeBoxOdd"/><text style="dominant-baseline: middle; font-size: 10.2px;" transform="translate(41.53125,171.3671875)" y="0" x="0" id="text-entity-Player-8a4d8822-5447-5bf3-9bb1-c82c7616821b-attr-7-name" class="er entityLabel">losses</text><rect height="22" width="25" y="160.3671875" x="90.734375" class="er attributeBoxOdd"/><text style="dominant-baseline: middle; font-size: 10.2px;" transform="translate(95.734375,171.3671875)" y="0" x="0" id="text-entity-Player-8a4d8822-5447-5bf3-9bb1-c82c7616821b-attr-7-comment" class="er entityLabel"/><rect height="26" width="36.53125" y="182.3671875" x="0" class="er attributeBoxEven"/><text style="dominant-baseline: middle; font-size: 10.2px;" transform="translate(5,195.3671875)" y="0" x="0" id="text-entity-Player-8a4d8822-5447-5bf3-9bb1-c82c7616821b-attr-8-type" class="er entityLabel">Float</text><rect height="26" width="54.203125" y="182.3671875" x="36.53125" class="er attributeBoxEven"/><text style="dominant-baseline: middle; font-size: 10.2px;" transform="translate(41.53125,195.3671875)" y="0" x="0" id="text-entity-Player-8a4d8822-5447-5bf3-9bb1-c82c7616821b-attr-8-name" class="er entityLabel">ratio</text><rect height="26" width="25" y="182.3671875" x="90.734375" class="er attributeBoxEven"/><text style="dominant-baseline: middle; font-size: 10.2px;" transform="translate(95.734375,195.3671875)" y="0" x="0" id="text-entity-Player-8a4d8822-5447-5bf3-9bb1-c82c7616821b-attr-8-comment" class="er entityLabel">❓</text><rect height="22.091796875" width="36.53125" y="208.3671875" x="0" class="er attributeBoxOdd"/><text style="dominant-baseline: middle; font-size: 10.2px;" transform="translate(5,219.4130859375)" y="0" x="0" id="text-entity-Player-8a4d8822-5447-5bf3-9bb1-c82c7616821b-attr-9-type" class="er entityLabel">String</text><rect height="22.091796875" width="54.203125" y="208.3671875" x="36.53125" class="er attributeBoxOdd"/><text style="dominant-baseline: middle; font-size: 10.2px;" transform="translate(41.53125,219.4130859375)" y="0" x="0" id="text-entity-Player-8a4d8822-5447-5bf3-9bb1-c82c7616821b-attr-9-name" class="er entityLabel">role</text><rect height="22.091796875" width="25" y="208.3671875" x="90.734375" class="er attributeBoxOdd"/><text style="dominant-baseline: middle; font-size: 10.2px;" transform="translate(95.734375,219.4130859375)" y="0" x="0" id="text-entity-Player-8a4d8822-5447-5bf3-9bb1-c82c7616821b-attr-9-comment" class="er entityLabel"/></g><g transform="translate(20,496.55078125 )" id="entity-Match-bb868d25-f1db-5893-b0b3-486d1ccf5a14"><rect height="72" width="130.3125" y="0" x="0" class="er entityBox"/><text style="dominant-baseline: middle; text-anchor: middle; font-size: 12px;" transform="translate(65.15625,12)" y="0" x="0" id="text-entity-Match-bb868d25-f1db-5893-b0b3-486d1ccf5a14" class="er entityLabel">Match</text><rect height="26" width="53.671875" y="24" x="0" class="er attributeBoxOdd"/><text style="dominant-baseline: middle; font-size: 10.2px;" transform="translate(5,37)" y="0" x="0" id="text-entity-Match-bb868d25-f1db-5893-b0b3-486d1ccf5a14-attr-1-type" class="er entityLabel">Int</text><rect height="26" width="51.640625" y="24" x="53.671875" class="er attributeBoxOdd"/><text style="dominant-baseline: middle; font-size: 10.2px;" transform="translate(58.671875,37)" y="0" x="0" id="text-entity-Match-bb868d25-f1db-5893-b0b3-486d1ccf5a14-attr-1-name" class="er entityLabel">id</text><rect height="26" width="25" y="24" x="105.3125" class="er attributeBoxOdd"/><text style="dominant-baseline: middle; font-size: 10.2px;" transform="translate(110.3125,37)" y="0" x="0" id="text-entity-Match-bb868d25-f1db-5893-b0b3-486d1ccf5a14-attr-1-comment" class="er entityLabel">🗝️</text><rect height="22" width="53.671875" y="50" x="0" class="er attributeBoxEven"/><text style="dominant-baseline: middle; font-size: 10.2px;" transform="translate(5,61)" y="0" x="0" id="text-entity-Match-bb868d25-f1db-5893-b0b3-486d1ccf5a14-attr-2-type" class="er entityLabel">DateTime</text><rect height="22" width="51.640625" y="50" x="53.671875" class="er attributeBoxEven"/><text style="dominant-baseline: middle; font-size: 10.2px;" transform="translate(58.671875,61)" y="0" x="0" id="text-entity-Match-bb868d25-f1db-5893-b0b3-486d1ccf5a14-attr-2-name" class="er entityLabel">datetime</text><rect height="22" width="25" y="50" x="105.3125" class="er attributeBoxEven"/><text style="dominant-baseline: middle; font-size: 10.2px;" transform="translate(110.3125,61)" y="0" x="0" id="text-entity-Match-bb868d25-f1db-5893-b0b3-486d1ccf5a14-attr-2-comment" class="er entityLabel"/></g><g transform="translate(24.203125,350.458984375 )" id="entity-PlayersInMatches-16e5a338-cf92-5dab-81b4-a27ce09aad4e"><rect height="46.091796875" width="121.90625" y="0" x="0" class="er entityBox"/><text style="dominant-baseline: middle; text-anchor: middle; font-size: 12px;" transform="translate(60.953125,12)" y="0" x="0" id="text-entity-PlayersInMatches-16e5a338-cf92-5dab-81b4-a27ce09aad4e" class="er entityLabel">PlayersInMatches</text><rect height="22.091796875" width="40.3984375" y="24" x="0" class="er attributeBoxOdd"/><text style="dominant-baseline: middle; font-size: 10.2px;" transform="translate(5,35.0458984375)" y="0" x="0" id="text-entity-PlayersInMatches-16e5a338-cf92-5dab-81b4-a27ce09aad4e-attr-1-type" class="er entityLabel">Int</text><rect height="22.091796875" width="81.5078125" y="24" x="40.3984375" class="er attributeBoxOdd"/><text style="dominant-baseline: middle; font-size: 10.2px;" transform="translate(45.3984375,35.0458984375)" y="0" x="0" id="text-entity-PlayersInMatches-16e5a338-cf92-5dab-81b4-a27ce09aad4e-attr-1-name" class="er entityLabel">playerScore</text></g><g transform="translate(243.0234375,88.1376953125 )" id="entity-MatchSettings-a0d3a564-6242-52be-9344-246fa734b625"><rect height="94.18359375" width="117.015625" y="0" x="0" class="er entityBox"/><text style="dominant-baseline: middle; text-anchor: middle; font-size: 12px;" transform="translate(58.5078125,12)" y="0" x="0" id="text-entity-MatchSettings-a0d3a564-6242-52be-9344-246fa734b625" class="er entityLabel">MatchSettings</text><rect height="26" width="22.46875" y="24" x="0" class="er attributeBoxOdd"/><text style="dominant-baseline: middle; font-size: 10.2px;" transform="translate(5,37)" y="0" x="0" id="text-entity-MatchSettings-a0d3a564-6242-52be-9344-246fa734b625-attr-1-type" class="er entityLabel">Int</text><rect height="26" width="69.546875" y="24" x="22.46875" class="er attributeBoxOdd"/><text style="dominant-baseline: middle; font-size: 10.2px;" transform="translate(27.46875,37)" y="0" x="0" id="text-entity-MatchSettings-a0d3a564-6242-52be-9344-246fa734b625-attr-1-name" class="er entityLabel">id</text><rect height="26" width="25" y="24" x="92.015625" class="er attributeBoxOdd"/><text style="dominant-baseline: middle; font-size: 10.2px;" transform="translate(97.015625,37)" y="0" x="0" id="text-entity-MatchSettings-a0d3a564-6242-52be-9344-246fa734b625-attr-1-comment" class="er entityLabel">🗝️</text><rect height="22.091796875" width="22.46875" y="50" x="0" class="er attributeBoxEven"/><text style="dominant-baseline: middle; font-size: 10.2px;" transform="translate(5,61.0458984375)" y="0" x="0" id="text-entity-MatchSettings-a0d3a564-6242-52be-9344-246fa734b625-attr-2-type" class="er entityLabel">Int</text><rect height="22.091796875" width="69.546875" y="50" x="22.46875" class="er attributeBoxEven"/><text style="dominant-baseline: middle; font-size: 10.2px;" transform="translate(27.46875,61.0458984375)" y="0" x="0" id="text-entity-MatchSettings-a0d3a564-6242-52be-9344-246fa734b625-attr-2-name" class="er entityLabel">numPlayers</text><rect height="22.091796875" width="25" y="50" x="92.015625" class="er attributeBoxEven"/><text style="dominant-baseline: middle; font-size: 10.2px;" transform="translate(97.015625,61.0458984375)" y="0" x="0" id="text-entity-MatchSettings-a0d3a564-6242-52be-9344-246fa734b625-attr-2-comment" class="er entityLabel"/><rect height="22.091796875" width="22.46875" y="72.091796875" x="0" class="er attributeBoxOdd"/><text style="dominant-baseline: middle; font-size: 10.2px;" transform="translate(5,83.1376953125)" y="0" x="0" id="text-entity-MatchSettings-a0d3a564-6242-52be-9344-246fa734b625-attr-3-type" class="er entityLabel">Int</text><rect height="22.091796875" width="69.546875" y="72.091796875" x="22.46875" class="er attributeBoxOdd"/><text style="dominant-baseline: middle; font-size: 10.2px;" transform="translate(27.46875,83.1376953125)" y="0" x="0" id="text-entity-MatchSettings-a0d3a564-6242-52be-9344-246fa734b625-attr-3-name" class="er entityLabel">matchLength</text><rect height="22.091796875" width="25" y="72.091796875" x="92.015625" class="er attributeBoxOdd"/><text style="dominant-baseline: middle; font-size: 10.2px;" transform="translate(97.015625,83.1376953125)" y="0" x="0" id="text-entity-MatchSettings-a0d3a564-6242-52be-9344-246fa734b625-attr-3-comment" class="er entityLabel"/></g><rect height="14" width="44.9375" y="296.2615051269531" x="21.524093627929688" class="er relationshipLabelBox"/><text style="text-anchor: middle; dominant-baseline: middle; font-size: 12px;" y="303.2615051269531" x="43.99284362792969" id="rel1" class="er relationshipLabel">matches</text><rect height="14" width="38.515625" y="438.58935546875" x="105.28800201416016" class="er relationshipLabelBox"/><text style="text-anchor: middle; dominant-baseline: middle; font-size: 12px;" y="445.58935546875" x="124.54581451416016" id="rel2" class="er relationshipLabel">players</text><rect height="14" width="33.65625" y="296.2616882324219" x="109.49115753173828" class="er relationshipLabelBox"/><text style="text-anchor: middle; dominant-baseline: middle; font-size: 12px;" y="303.2616882324219" x="126.31928253173828" id="rel3" class="er relationshipLabel">player</text><rect height="14" width="33.53125" y="438.5894470214844" x="29.0006103515625" class="er relationshipLabelBox"/><text style="text-anchor: middle; dominant-baseline: middle; font-size: 12px;" y="445.5894470214844" x="45.7662353515625" id="rel4" class="er relationshipLabel">match</text></svg>